<svg xmlns="http://www.w3.org/2000/svg" xmlns:xlink="http://www.w3.org/1999/xlink" height="125px" style="enable-background:new 0 0 350 125;" version="1.1" viewBox="0 0 350 125" width="350px" x="0px" xml:space="preserve" y="0px">
<style type="text/css">
	.st0{fill:#144196;}
	.st1{fill:#C3BEB9;}
</style>
<g>
	<path class="st0" d="M4.32,40.64c1.86-1.45,4.23-2.16,6.87-2.16c1.37,0,3.31,0.28,4.5,0.61c0.31,0.07,0.48,0.13,0.71,0.1   c0.02,0.59,0.15,2.19,0.36,3.74c-0.13,0.18-0.51,0.2-0.69,0.05c-0.38-1.73-1.53-3.72-5.22-3.72c-3.9,0-7.2,2.47-7.2,7.74   c0,5.35,3.38,8.3,7.56,8.3c3.28,0,4.73-2.14,5.32-3.64c0.18-0.13,0.56-0.08,0.66,0.1c-0.18,1.32-0.84,3-1.22,3.49   c-0.31,0.05-0.61,0.15-0.89,0.25c-0.56,0.2-2.39,0.58-4.02,0.58c-2.29,0-4.48-0.46-6.34-1.7c-2.04-1.4-3.61-3.71-3.61-7   C1.11,44.56,2.39,42.14,4.32,40.64z"/>
	<path class="st0" d="M48.1,35.74c0-2.87-0.15-3.56-1.9-3.76l-1.24-0.12c-0.31-0.23-0.27-0.81,0.04-0.97   c2.09-0.19,4.72-0.31,8.32-0.31c2.44,0,4.76,0.19,6.5,1.08c1.66,0.81,2.94,2.36,2.94,4.84c0,2.79-1.63,4.22-3.95,5.31   c0,0.39,0.31,0.51,0.73,0.58c2.09,0.39,5.19,2.32,5.19,6.47c0,4.49-3.33,7.51-10.3,7.51c-1.12,0-3.02-0.12-4.65-0.12   c-1.7,0-3.02,0.08-4.45,0.12c-0.23-0.12-0.31-0.73-0.08-0.97l0.69-0.12c2.05-0.31,2.13-0.78,2.13-4.84V35.74z M51.27,40.89   c0,1.08,0.04,1.16,2.01,1.08c3.95-0.16,6.08-1.32,6.08-4.96c0-3.79-2.83-5.23-5.77-5.23c-0.85,0-1.43,0.08-1.78,0.23   c-0.39,0.12-0.54,0.31-0.54,1.01V40.89z M51.27,49.88c0,1.39,0.08,3.37,0.81,4.22c0.74,0.89,1.9,1.08,3.06,1.08   c3.44,0,6.08-1.55,6.08-5.42c0-3.06-1.55-6.62-7.7-6.62c-2.09,0-2.25,0.23-2.25,1.01V49.88z"/>
	<path class="st0" d="M126.25,50.77c0,2.06,0.31,3.3,1.24,3.66c0.15,0.15,0.15,0.46-0.05,0.62c-0.62,0-1.54,0.2-2.52,0.46   c-2.73,0.72-6.43,1.34-9.21,1.34c-6.12,0-11.73-1.7-15.69-5.71c-3.09-3.09-4.73-7.15-4.73-11.68c0-4.37,1.44-8.8,4.63-12.2   c3.45-3.6,8.54-6.02,16.31-6.02c2.93,0,5.66,0.57,6.53,0.77c0.98,0.2,2.57,0.56,3.19,0.46c0,1.7,0.31,4.37,0.77,7.46   c-0.15,0.41-1.08,0.46-1.39,0.16c-1.44-5.56-5.3-7.31-10.55-7.31c-9.98,0-14.35,7.1-14.35,14.82c0,9.88,5.09,17.65,15.43,17.65   c3.19,0,5.09-0.67,5.66-1.54c0.26-0.36,0.51-1.28,0.51-2.93v-2.06c0-4.32-0.15-4.63-3.34-4.99l-2.27-0.26   c-0.41-0.2-0.36-1.13,0-1.29c1.49,0.11,4.32,0.16,7.36,0.16c2.01,0,3.76-0.05,5.45-0.16c0.36,0.21,0.41,0.98,0.05,1.29l-0.82,0.1   c-2.16,0.26-2.21,1.7-2.21,4.32V50.77z"/>
</g>
<g>
	<path class="st1" d="M96.46,79.22c1.65-4.37,2.16-6.07,2.16-6.89c0-0.72-0.46-1.03-1.44-1.19l-2.42-0.36   c-0.31-0.31-0.21-1.08,0.26-1.28c2.42,0.1,4.06,0.15,5.66,0.15c1.13,0,2.37-0.05,3.45-0.15c-0.72,2.47-0.31,5.61,0.26,10.03   l0.82,6.64c0.56,4.43,0.87,7.15,1.13,9.42h0.1c2.01-2.42,3.96-5.04,5.92-7.56l8.18-10.55c3.91-5.04,4.73-7.05,4.99-7.97   c0.88,0.1,1.8,0.15,3.19,0.15c2.01,0,3.6-0.05,5.2-0.15c0.41,0.26,0.26,0.98,0,1.28l-1.18,0.2c-1.8,0.31-2.57,0.62-3.09,1.18   c-0.72,0.82-1.24,2.42-2.37,6.38L122.8,94.5c-1.08,3.81-1.44,5.61-1.49,6.43c-0.05,0.82,0.62,1.29,2.06,1.39l1.75,0.15   c0.36,0.36,0.21,1.08-0.2,1.29c-1.9-0.1-4.22-0.15-6.59-0.15c-2.11,0-4.32,0.05-6.23,0.15c-0.36-0.31-0.36-1.08,0-1.29l1.34-0.15   c0.93-0.1,2.26-0.41,2.83-0.98c0.62-0.62,1.65-3.29,2.62-6.54L123,81.33c0.82-2.62,1.54-4.94,1.95-6.48l-0.15-0.05   c-0.72,0.93-2.06,2.68-4.78,6.28L112.2,91.2c-2.93,3.81-5.97,7.72-8.23,11.58c-0.31,0.21-0.77,0.05-0.98-0.2   c0.05-1.85-0.21-4.58-0.82-10.5c-0.67-6.64-1.49-14.72-1.75-17.29h-0.1c-0.82,1.85-1.6,4.01-2.37,6.12l-3.85,10.39   c-2.42,6.64-3.09,8.65-3.09,9.62c0,0.57,0.26,0.98,1.55,1.18l2.21,0.36c0.21,0.31,0.1,1.03-0.15,1.29c-1.44-0.1-3.5-0.15-5.92-0.15   c-2.11,0-3.86,0.05-5.5,0.15c-0.31-0.31-0.31-1.13,0.05-1.29l1.39-0.15c1.13-0.1,2.26-0.46,2.93-1.39   c0.82-1.03,2.98-6.23,6.22-14.77L96.46,79.22z"/>
	<path class="st1" d="M159.99,75.84c1.16-3.64,1.2-4.18-0.85-4.57l-0.77-0.16c-0.23-0.31-0.19-0.81,0.23-0.96   c1.36,0.07,2.67,0.12,4.3,0.12h7.32c2.48,0,4.3,0,5.46-0.12c-0.27,0.66-1.2,3.75-1.59,5.15c-0.15,0.31-0.85,0.27-0.97-0.04   c0.23-2.01,0.35-2.98-1.36-3.45c-0.89-0.23-2.09-0.35-4.1-0.35h-2.28c-1.01,0-1.16,0.15-1.51,1.31l-2.48,7.94   c-0.35,1.08-0.39,1.12,0.7,1.12h1.94c3.68,0,4.45-0.23,5.34-1.9l0.62-1.16c0.15-0.27,0.89-0.23,0.97,0.08   c-0.27,0.66-0.85,2.32-1.32,3.76c-0.43,1.47-0.81,2.9-1.01,3.76c-0.23,0.31-0.81,0.27-0.97-0.04v-1.09c0-2.01-1.01-2.05-3.99-2.05   h-1.93c-1.09,0-1.16,0.04-1.51,1.13l-1.59,5.23c-0.66,2.17-1.05,3.48-0.66,4.26c0.27,0.54,1.01,0.81,4.3,0.81   c4.26,0,5.81-0.23,8.25-4.03c0.31-0.2,0.74-0.12,0.89,0.23c-0.35,1.12-1.67,4.07-2.67,5.11c-2.56-0.08-5.93-0.12-8.87-0.12h-4.57   c-1.59,0-2.91,0.04-4.61,0.12c-0.31-0.2-0.31-0.74-0.04-0.97l1.36-0.12c1.86-0.15,2.25-0.66,3.48-4.61L159.99,75.84z"/>
	<path class="st1" d="M203.12,73.98c0.61-1.96,0.38-2.19-0.76-2.26l-0.84-0.03c-0.18-0.13-0.13-0.48,0-0.61   c0.92-0.13,2.39-0.31,4.28-0.31c1.35,0,2.9,0.1,4.12,0.61c1.25,0.53,2.16,1.5,2.16,3.21c0,2.57-2.57,3.77-3.97,3.87   c-0.41,0.02-0.23,0.2,0,0.28c1.45,0.48,2.65,1.91,2.65,3.74c0,0.94-0.28,2.24-1.37,3.31c-1.07,1.07-2.95,1.93-6.11,1.93   c-1.37,0-2.31-0.08-3.38-0.08c-1.02,0-1.88,0.03-2.62,0.08c-0.2-0.13-0.2-0.48-0.03-0.64l0.51-0.08c1.22-0.18,1.48-0.43,2.29-3.03   L203.12,73.98z M201.72,84.72c-0.54,1.68,0.2,2.21,2.03,2.21c2.14,0,4.81-1.32,4.81-4.76c0-2.16-1.86-3.21-3.77-3.21   c-1.22,0-1.32,0.03-1.58,0.87L201.72,84.72z M203.96,77.46c-0.18,0.61-0.15,0.74,0.94,0.74c1.83,0,5.09-0.89,5.09-4.1   c0-1.47-1.12-2.54-3.21-2.54c-0.97,0-1.02-0.03-1.25,0.81L203.96,77.46z"/>
</g>
<g>
	<rect height="0.53" width="212.42" y="61.82"/>
	<rect height="82.51" width="0.53" x="244.4" y="21.24"/>
</g>
<g>
	<path class="st1" d="M268.43,47.87c0,0.05-0.01,0.09-0.04,0.13c-0.03,0.04-0.07,0.07-0.14,0.09c-0.07,0.02-0.16,0.04-0.28,0.06   c-0.12,0.01-0.26,0.02-0.44,0.02c-0.17,0-0.32-0.01-0.43-0.02c-0.12-0.01-0.21-0.03-0.28-0.06c-0.07-0.02-0.12-0.06-0.14-0.09   c-0.03-0.04-0.04-0.08-0.04-0.13v-7.62h-0.02l-2.71,7.62c-0.02,0.06-0.05,0.11-0.09,0.16c-0.04,0.04-0.1,0.07-0.18,0.1   c-0.08,0.02-0.17,0.04-0.29,0.05c-0.12,0.01-0.26,0.01-0.42,0.01c-0.16,0-0.3-0.01-0.42-0.02c-0.12-0.01-0.21-0.03-0.29-0.06   c-0.08-0.03-0.13-0.06-0.18-0.1c-0.04-0.04-0.07-0.08-0.09-0.14l-2.62-7.62h-0.02v7.62c0,0.05-0.01,0.09-0.04,0.13   c-0.03,0.04-0.08,0.07-0.15,0.09c-0.07,0.02-0.17,0.04-0.28,0.06c-0.11,0.01-0.26,0.02-0.44,0.02c-0.17,0-0.32-0.01-0.43-0.02   c-0.12-0.01-0.21-0.03-0.28-0.06c-0.07-0.02-0.12-0.06-0.14-0.09c-0.03-0.04-0.04-0.08-0.04-0.13v-8.35c0-0.25,0.06-0.43,0.2-0.56   c0.13-0.13,0.3-0.2,0.52-0.2h1.25c0.22,0,0.41,0.02,0.57,0.05c0.16,0.04,0.3,0.1,0.41,0.18c0.12,0.08,0.21,0.2,0.29,0.33   c0.08,0.14,0.14,0.31,0.2,0.51l2.03,5.58h0.03l2.1-5.57c0.06-0.2,0.13-0.37,0.21-0.51c0.08-0.14,0.16-0.25,0.26-0.34   c0.1-0.09,0.22-0.15,0.35-0.18c0.14-0.04,0.29-0.05,0.47-0.05h1.28c0.13,0,0.24,0.02,0.34,0.05c0.09,0.03,0.17,0.08,0.23,0.15   c0.06,0.06,0.11,0.15,0.14,0.24c0.03,0.09,0.05,0.2,0.05,0.32V47.87z"/>
	<path class="st1" d="M277.51,47.38c0,0.14-0.01,0.26-0.02,0.35c-0.01,0.09-0.03,0.17-0.05,0.23c-0.02,0.06-0.05,0.1-0.09,0.13   c-0.04,0.03-0.08,0.04-0.12,0.04h-4.71c-0.16,0-0.29-0.05-0.4-0.14c-0.11-0.09-0.16-0.25-0.16-0.46v-8.17   c0-0.21,0.05-0.37,0.16-0.46c0.11-0.09,0.24-0.14,0.4-0.14h4.68c0.04,0,0.08,0.01,0.12,0.04c0.03,0.02,0.06,0.07,0.09,0.13   c0.02,0.06,0.04,0.14,0.05,0.23c0.01,0.09,0.02,0.21,0.02,0.36c0,0.14-0.01,0.25-0.02,0.34c-0.01,0.09-0.03,0.17-0.05,0.23   c-0.03,0.06-0.05,0.1-0.09,0.13c-0.03,0.03-0.07,0.04-0.12,0.04h-3.35v2.29h2.83c0.04,0,0.08,0.01,0.12,0.04   c0.04,0.03,0.07,0.07,0.09,0.12c0.03,0.06,0.04,0.13,0.05,0.22c0.01,0.09,0.02,0.21,0.02,0.34c0,0.14-0.01,0.26-0.02,0.35   c-0.01,0.09-0.03,0.17-0.05,0.22c-0.02,0.06-0.05,0.1-0.09,0.12c-0.04,0.02-0.08,0.04-0.12,0.04h-2.83v2.64h3.37   c0.04,0,0.08,0.01,0.12,0.04c0.04,0.03,0.07,0.07,0.09,0.13c0.02,0.06,0.04,0.13,0.05,0.23C277.5,47.12,277.51,47.24,277.51,47.38z   "/>
	<path class="st1" d="M288.45,43.3c0,0.86-0.11,1.59-0.34,2.2c-0.22,0.61-0.55,1.11-0.97,1.49c-0.42,0.39-0.93,0.67-1.53,0.85   c-0.6,0.18-1.32,0.27-2.15,0.27h-2.24c-0.16,0-0.29-0.05-0.4-0.14c-0.11-0.09-0.16-0.25-0.16-0.46v-8.17   c0-0.21,0.05-0.37,0.16-0.46c0.11-0.09,0.24-0.14,0.4-0.14h2.4c0.84,0,1.54,0.1,2.12,0.29c0.58,0.2,1.07,0.49,1.47,0.87   c0.4,0.38,0.7,0.86,0.91,1.42C288.35,41.91,288.45,42.56,288.45,43.3z M286.48,43.37c0-0.44-0.05-0.86-0.16-1.24   c-0.1-0.38-0.27-0.71-0.5-0.99c-0.23-0.28-0.52-0.5-0.88-0.66c-0.36-0.16-0.83-0.24-1.42-0.24h-0.96v6.37h0.99   c0.52,0,0.96-0.07,1.32-0.2c0.36-0.14,0.66-0.34,0.89-0.61c0.24-0.27,0.42-0.61,0.54-1.02C286.42,44.38,286.48,43.91,286.48,43.37z   "/>
	<path class="st1" d="M293.41,47.87c0,0.05-0.02,0.09-0.05,0.13c-0.03,0.04-0.08,0.07-0.16,0.09c-0.07,0.02-0.17,0.04-0.29,0.06   c-0.12,0.01-0.27,0.02-0.46,0.02c-0.18,0-0.34-0.01-0.46-0.02c-0.12-0.01-0.22-0.03-0.29-0.06c-0.07-0.02-0.12-0.06-0.15-0.09   c-0.03-0.04-0.05-0.08-0.05-0.13v-8.85c0-0.05,0.02-0.09,0.05-0.13c0.03-0.04,0.08-0.07,0.16-0.09c0.07-0.02,0.17-0.04,0.29-0.06   c0.12-0.01,0.27-0.02,0.46-0.02c0.19,0,0.34,0.01,0.46,0.02c0.12,0.01,0.22,0.03,0.29,0.06c0.07,0.02,0.12,0.06,0.16,0.09   c0.03,0.04,0.05,0.08,0.05,0.13V47.87z"/>
	<path class="st1" d="M303.41,46.71c0,0.12,0,0.22-0.01,0.31c-0.01,0.09-0.02,0.16-0.03,0.22c-0.01,0.06-0.03,0.11-0.06,0.16   c-0.02,0.04-0.06,0.09-0.12,0.15c-0.05,0.06-0.16,0.13-0.31,0.21c-0.15,0.09-0.34,0.17-0.56,0.25c-0.22,0.08-0.47,0.15-0.75,0.2   c-0.28,0.05-0.59,0.08-0.92,0.08c-0.64,0-1.22-0.1-1.74-0.3c-0.52-0.2-0.96-0.49-1.32-0.89c-0.36-0.39-0.64-0.88-0.83-1.47   c-0.19-0.59-0.29-1.27-0.29-2.06c0-0.8,0.11-1.5,0.32-2.12c0.21-0.62,0.51-1.14,0.89-1.56c0.38-0.42,0.84-0.74,1.37-0.96   c0.53-0.22,1.12-0.33,1.76-0.33c0.26,0,0.51,0.02,0.75,0.07c0.24,0.04,0.46,0.1,0.67,0.17c0.2,0.07,0.39,0.15,0.55,0.24   c0.16,0.09,0.28,0.17,0.34,0.24c0.06,0.06,0.11,0.12,0.13,0.16c0.02,0.04,0.04,0.1,0.06,0.17c0.01,0.07,0.03,0.15,0.03,0.24   c0.01,0.09,0.01,0.21,0.01,0.34c0,0.14-0.01,0.27-0.01,0.37c-0.01,0.1-0.03,0.18-0.05,0.25c-0.02,0.06-0.05,0.11-0.09,0.14   c-0.03,0.03-0.07,0.04-0.12,0.04c-0.07,0-0.16-0.04-0.28-0.13c-0.11-0.08-0.25-0.18-0.43-0.28c-0.18-0.1-0.39-0.2-0.63-0.28   c-0.24-0.08-0.53-0.13-0.87-0.13c-0.37,0-0.7,0.08-1,0.23c-0.29,0.15-0.54,0.37-0.75,0.65c-0.2,0.28-0.36,0.62-0.47,1.02   c-0.11,0.4-0.16,0.85-0.16,1.35c0,0.55,0.06,1.03,0.17,1.43c0.11,0.4,0.27,0.73,0.49,0.99c0.21,0.26,0.46,0.46,0.76,0.58   c0.3,0.13,0.63,0.19,1,0.19c0.34,0,0.63-0.04,0.88-0.12c0.25-0.08,0.46-0.17,0.63-0.26c0.18-0.1,0.32-0.18,0.43-0.26   c0.11-0.08,0.2-0.12,0.26-0.12c0.05,0,0.09,0.01,0.12,0.03c0.03,0.02,0.05,0.06,0.07,0.12c0.02,0.06,0.03,0.14,0.04,0.24   C303.41,46.39,303.41,46.53,303.41,46.71z"/>
	<path class="st1" d="M308.17,47.87c0,0.05-0.02,0.09-0.05,0.13c-0.03,0.04-0.08,0.07-0.16,0.09c-0.07,0.02-0.17,0.04-0.29,0.06   c-0.12,0.01-0.27,0.02-0.46,0.02c-0.18,0-0.34-0.01-0.46-0.02c-0.12-0.01-0.22-0.03-0.29-0.06c-0.07-0.02-0.12-0.06-0.15-0.09   c-0.03-0.04-0.05-0.08-0.05-0.13v-8.85c0-0.05,0.02-0.09,0.05-0.13c0.03-0.04,0.08-0.07,0.16-0.09c0.07-0.02,0.17-0.04,0.29-0.06   c0.12-0.01,0.27-0.02,0.46-0.02c0.19,0,0.34,0.01,0.46,0.02c0.12,0.01,0.22,0.03,0.29,0.06c0.07,0.02,0.12,0.06,0.16,0.09   c0.03,0.04,0.05,0.08,0.05,0.13V47.87z"/>
	<path class="st1" d="M319.87,47.46c0,0.11-0.02,0.21-0.06,0.3c-0.04,0.09-0.09,0.16-0.16,0.22c-0.07,0.06-0.14,0.1-0.23,0.13   c-0.09,0.03-0.18,0.04-0.27,0.04h-0.81c-0.17,0-0.32-0.02-0.44-0.05c-0.12-0.03-0.24-0.09-0.34-0.18c-0.1-0.09-0.2-0.21-0.3-0.36   c-0.1-0.15-0.2-0.35-0.33-0.59l-2.33-4.38c-0.14-0.26-0.27-0.54-0.41-0.84c-0.14-0.3-0.27-0.59-0.38-0.88h-0.01   c0.02,0.35,0.03,0.69,0.04,1.04c0.01,0.35,0.01,0.7,0.01,1.07v4.9c0,0.05-0.01,0.09-0.04,0.13c-0.03,0.04-0.07,0.07-0.14,0.1   c-0.07,0.03-0.15,0.05-0.26,0.06c-0.11,0.01-0.25,0.02-0.43,0.02c-0.17,0-0.31-0.01-0.42-0.02c-0.11-0.01-0.2-0.03-0.26-0.06   c-0.06-0.03-0.11-0.06-0.13-0.1c-0.02-0.04-0.04-0.08-0.04-0.13v-8.42c0-0.23,0.07-0.4,0.2-0.51c0.13-0.11,0.3-0.17,0.49-0.17h1.02   c0.18,0,0.34,0.02,0.46,0.05c0.13,0.03,0.24,0.08,0.34,0.16c0.1,0.07,0.19,0.17,0.28,0.3c0.09,0.13,0.18,0.29,0.27,0.47l1.82,3.42   c0.11,0.21,0.21,0.41,0.32,0.61c0.1,0.2,0.2,0.4,0.3,0.6c0.1,0.2,0.19,0.4,0.28,0.59c0.09,0.19,0.18,0.39,0.27,0.58h0.01   c-0.02-0.34-0.03-0.69-0.03-1.06c-0.01-0.37-0.01-0.72-0.01-1.05v-4.39c0-0.05,0.02-0.09,0.04-0.13c0.03-0.04,0.08-0.07,0.14-0.1   c0.07-0.03,0.16-0.05,0.27-0.06c0.11-0.01,0.25-0.02,0.43-0.02c0.16,0,0.3,0.01,0.41,0.02c0.11,0.01,0.2,0.03,0.26,0.06   c0.06,0.03,0.1,0.06,0.13,0.1c0.02,0.04,0.04,0.08,0.04,0.13V47.46z"/>
	<path class="st1" d="M328.94,47.38c0,0.14-0.01,0.26-0.02,0.35c-0.01,0.09-0.03,0.17-0.05,0.23c-0.02,0.06-0.05,0.1-0.09,0.13   c-0.04,0.03-0.08,0.04-0.12,0.04h-4.7c-0.16,0-0.29-0.05-0.4-0.14c-0.11-0.09-0.16-0.25-0.16-0.46v-8.17   c0-0.21,0.05-0.37,0.16-0.46c0.11-0.09,0.24-0.14,0.4-0.14h4.68c0.04,0,0.08,0.01,0.12,0.04c0.03,0.02,0.06,0.07,0.09,0.13   c0.02,0.06,0.04,0.14,0.05,0.23c0.01,0.09,0.02,0.21,0.02,0.36c0,0.14-0.01,0.25-0.02,0.34c-0.01,0.09-0.03,0.17-0.05,0.23   c-0.02,0.06-0.05,0.1-0.09,0.13c-0.03,0.03-0.07,0.04-0.12,0.04h-3.34v2.29h2.83c0.04,0,0.08,0.01,0.12,0.04   c0.04,0.03,0.07,0.07,0.09,0.12c0.02,0.06,0.04,0.13,0.05,0.22c0.01,0.09,0.02,0.21,0.02,0.34c0,0.14-0.01,0.26-0.02,0.35   c-0.01,0.09-0.03,0.17-0.05,0.22c-0.03,0.06-0.05,0.1-0.09,0.12c-0.04,0.02-0.08,0.04-0.12,0.04h-2.83v2.64h3.37   c0.04,0,0.08,0.01,0.12,0.04c0.04,0.03,0.07,0.07,0.09,0.13c0.02,0.06,0.04,0.13,0.05,0.23C328.94,47.12,328.94,47.24,328.94,47.38   z"/>
	<path class="st1" d="M337.51,45.32c0,0.49-0.09,0.92-0.27,1.3c-0.18,0.37-0.43,0.68-0.75,0.93c-0.31,0.25-0.68,0.44-1.1,0.56   c-0.42,0.13-0.87,0.19-1.35,0.19c-0.32,0-0.62-0.03-0.9-0.08c-0.28-0.05-0.52-0.12-0.73-0.19c-0.21-0.07-0.39-0.15-0.53-0.24   c-0.14-0.08-0.25-0.15-0.31-0.22c-0.06-0.06-0.11-0.15-0.13-0.27c-0.03-0.12-0.04-0.29-0.04-0.51c0-0.15,0-0.27,0.01-0.38   c0.01-0.1,0.03-0.18,0.05-0.25c0.02-0.06,0.05-0.11,0.09-0.13c0.04-0.03,0.08-0.04,0.13-0.04c0.07,0,0.16,0.04,0.29,0.12   c0.12,0.08,0.28,0.17,0.47,0.26c0.19,0.1,0.42,0.19,0.69,0.26c0.27,0.08,0.58,0.12,0.93,0.12c0.23,0,0.44-0.03,0.62-0.08   c0.18-0.06,0.34-0.13,0.47-0.24c0.13-0.1,0.23-0.23,0.29-0.38c0.07-0.15,0.1-0.32,0.1-0.5c0-0.21-0.06-0.39-0.17-0.55   c-0.12-0.15-0.27-0.29-0.45-0.41c-0.19-0.12-0.4-0.23-0.63-0.33c-0.24-0.1-0.48-0.21-0.73-0.33c-0.25-0.12-0.5-0.25-0.73-0.39   c-0.24-0.15-0.45-0.32-0.63-0.53c-0.19-0.2-0.34-0.45-0.45-0.73c-0.12-0.28-0.17-0.61-0.17-1.01c0-0.45,0.08-0.84,0.25-1.18   c0.17-0.34,0.39-0.62,0.67-0.85c0.28-0.22,0.62-0.39,1-0.5c0.38-0.11,0.79-0.17,1.22-0.17c0.22,0,0.44,0.02,0.67,0.05   c0.22,0.03,0.43,0.08,0.62,0.14c0.19,0.06,0.37,0.12,0.51,0.2c0.15,0.07,0.25,0.13,0.3,0.18c0.05,0.05,0.08,0.09,0.1,0.12   c0.02,0.03,0.03,0.08,0.04,0.13c0.01,0.06,0.02,0.13,0.03,0.21c0.01,0.08,0.01,0.19,0.01,0.31c0,0.14,0,0.26-0.01,0.35   c-0.01,0.1-0.02,0.18-0.04,0.24c-0.02,0.06-0.04,0.11-0.07,0.14c-0.03,0.03-0.07,0.04-0.13,0.04c-0.05,0-0.14-0.03-0.25-0.1   c-0.12-0.07-0.26-0.14-0.43-0.22c-0.17-0.08-0.36-0.15-0.59-0.22c-0.22-0.07-0.47-0.1-0.73-0.1c-0.21,0-0.39,0.03-0.54,0.08   c-0.15,0.05-0.28,0.12-0.39,0.21c-0.1,0.09-0.18,0.2-0.23,0.32c-0.05,0.13-0.08,0.26-0.08,0.4c0,0.21,0.06,0.39,0.17,0.54   c0.11,0.15,0.27,0.29,0.46,0.41c0.19,0.12,0.41,0.23,0.65,0.33c0.24,0.1,0.49,0.21,0.74,0.33c0.25,0.12,0.5,0.25,0.74,0.39   s0.46,0.32,0.64,0.53c0.19,0.21,0.34,0.45,0.46,0.72C337.46,44.61,337.51,44.94,337.51,45.32z"/>
	<path class="st1" d="M263.06,67.15c0,0.14-0.01,0.26-0.02,0.35c-0.01,0.09-0.03,0.17-0.06,0.23c-0.02,0.06-0.05,0.1-0.09,0.13   c-0.04,0.03-0.08,0.04-0.12,0.04h-4.71c-0.16,0-0.29-0.05-0.4-0.14c-0.11-0.09-0.16-0.25-0.16-0.46v-8.17   c0-0.21,0.05-0.37,0.16-0.46c0.11-0.09,0.24-0.14,0.4-0.14h4.68c0.04,0,0.08,0.01,0.12,0.04c0.03,0.02,0.06,0.07,0.09,0.13   c0.02,0.06,0.04,0.14,0.05,0.23c0.01,0.09,0.02,0.21,0.02,0.36c0,0.14-0.01,0.25-0.02,0.34c-0.01,0.09-0.03,0.17-0.05,0.23   c-0.02,0.06-0.05,0.1-0.09,0.13c-0.03,0.03-0.07,0.04-0.12,0.04h-3.34v2.29h2.83c0.04,0,0.08,0.01,0.12,0.04   c0.04,0.03,0.07,0.07,0.09,0.12c0.02,0.06,0.04,0.13,0.05,0.22c0.01,0.09,0.02,0.21,0.02,0.34c0,0.14-0.01,0.26-0.02,0.35   c-0.01,0.09-0.03,0.16-0.05,0.22c-0.02,0.06-0.05,0.09-0.09,0.12c-0.04,0.02-0.08,0.04-0.12,0.04h-2.83v2.64h3.37   c0.04,0,0.08,0.01,0.12,0.04c0.04,0.03,0.07,0.07,0.09,0.13c0.02,0.06,0.04,0.13,0.06,0.23C263.06,66.89,263.06,67.01,263.06,67.15   z"/>
	<path class="st1" d="M270.89,67.56c-0.02,0.08-0.06,0.15-0.09,0.2c-0.04,0.05-0.1,0.09-0.19,0.11c-0.09,0.03-0.2,0.04-0.35,0.05   c-0.15,0.01-0.34,0.01-0.59,0.01c-0.19,0-0.36,0-0.5,0c-0.14,0-0.25-0.01-0.35-0.02c-0.1-0.01-0.17-0.02-0.24-0.04   c-0.06-0.02-0.11-0.04-0.15-0.07c-0.04-0.03-0.07-0.06-0.09-0.11c-0.02-0.04-0.04-0.09-0.06-0.15l-2.79-8.3   c-0.06-0.17-0.09-0.31-0.11-0.41c-0.01-0.1,0.01-0.18,0.07-0.23c0.06-0.05,0.16-0.08,0.31-0.09c0.14-0.01,0.35-0.02,0.61-0.02   c0.22,0,0.4,0.01,0.52,0.01c0.13,0.01,0.22,0.03,0.29,0.05c0.07,0.02,0.11,0.06,0.14,0.11c0.03,0.05,0.05,0.11,0.08,0.18l2.28,7.22   h0.01l2.24-7.19c0.02-0.08,0.04-0.15,0.07-0.2c0.03-0.05,0.08-0.09,0.15-0.12c0.07-0.03,0.17-0.05,0.3-0.06   c0.13-0.01,0.31-0.01,0.54-0.01c0.22,0,0.39,0.01,0.52,0.02c0.12,0.01,0.21,0.05,0.25,0.11c0.05,0.06,0.06,0.13,0.04,0.23   c-0.02,0.1-0.05,0.24-0.11,0.41L270.89,67.56z"/>
	<path class="st1" d="M283.36,67.18c0.06,0.17,0.09,0.31,0.11,0.41c0.01,0.1-0.01,0.18-0.06,0.23c-0.05,0.05-0.15,0.08-0.28,0.09   c-0.14,0.01-0.32,0.02-0.56,0.02c-0.25,0-0.44,0-0.58-0.01c-0.14-0.01-0.24-0.02-0.31-0.04c-0.07-0.02-0.12-0.05-0.15-0.09   c-0.03-0.04-0.05-0.09-0.07-0.15l-0.63-1.88h-3.52l-0.59,1.83c-0.02,0.07-0.04,0.13-0.08,0.17c-0.03,0.04-0.08,0.08-0.15,0.11   c-0.07,0.03-0.17,0.05-0.3,0.06c-0.13,0.01-0.3,0.01-0.5,0.01c-0.22,0-0.4-0.01-0.52-0.02c-0.13-0.01-0.21-0.05-0.26-0.11   c-0.05-0.06-0.07-0.13-0.05-0.23c0.01-0.1,0.05-0.24,0.11-0.4l2.89-8.31c0.03-0.08,0.06-0.15,0.1-0.2c0.04-0.05,0.1-0.09,0.18-0.12   c0.08-0.03,0.2-0.04,0.35-0.05c0.15-0.01,0.35-0.01,0.59-0.01c0.28,0,0.51,0,0.68,0.01c0.17,0.01,0.3,0.02,0.39,0.05   c0.09,0.03,0.16,0.07,0.2,0.12c0.04,0.05,0.08,0.13,0.11,0.22L283.36,67.18z M279.06,60.31L279.06,60.31l-1.33,3.98h2.66   L279.06,60.31z"/>
	<path class="st1" d="M291.3,67.1c0,0.14-0.01,0.27-0.02,0.37c-0.01,0.1-0.03,0.18-0.05,0.25c-0.02,0.06-0.05,0.11-0.09,0.14   c-0.04,0.03-0.08,0.04-0.13,0.04h-4.29c-0.16,0-0.29-0.05-0.4-0.14c-0.11-0.09-0.16-0.25-0.16-0.46v-8.51   c0-0.05,0.02-0.09,0.05-0.13c0.03-0.04,0.08-0.07,0.16-0.09c0.07-0.02,0.17-0.04,0.29-0.06c0.12-0.01,0.28-0.02,0.46-0.02   c0.19,0,0.34,0.01,0.46,0.02c0.12,0.01,0.22,0.03,0.29,0.06c0.07,0.02,0.12,0.06,0.16,0.09c0.03,0.04,0.05,0.08,0.05,0.13v7.54   h2.95c0.05,0,0.09,0.01,0.13,0.04c0.04,0.03,0.07,0.07,0.09,0.13c0.02,0.06,0.04,0.14,0.05,0.24   C291.29,66.83,291.3,66.95,291.3,67.1z"/>
	<path class="st1" d="M301.19,64.4c0,0.57-0.08,1.09-0.25,1.54c-0.17,0.45-0.42,0.84-0.74,1.15c-0.33,0.32-0.73,0.55-1.22,0.72   c-0.48,0.16-1.04,0.25-1.67,0.25c-0.59,0-1.12-0.07-1.59-0.22c-0.47-0.15-0.86-0.37-1.19-0.67c-0.32-0.3-0.57-0.67-0.74-1.12   c-0.17-0.45-0.26-0.97-0.26-1.57v-5.7c0-0.05,0.01-0.09,0.04-0.13c0.03-0.04,0.08-0.07,0.16-0.09c0.07-0.02,0.17-0.04,0.29-0.06   c0.12-0.01,0.28-0.02,0.46-0.02c0.18,0,0.33,0.01,0.46,0.02c0.12,0.01,0.22,0.03,0.29,0.06c0.07,0.02,0.12,0.06,0.15,0.09   c0.03,0.04,0.05,0.08,0.05,0.13v5.53c0,0.37,0.05,0.69,0.14,0.97c0.09,0.27,0.22,0.5,0.39,0.68c0.17,0.18,0.38,0.31,0.62,0.4   c0.24,0.09,0.5,0.13,0.8,0.13c0.3,0,0.57-0.05,0.8-0.14c0.24-0.09,0.44-0.23,0.6-0.4c0.16-0.17,0.29-0.39,0.38-0.65   c0.09-0.26,0.13-0.55,0.13-0.88v-5.64c0-0.05,0.02-0.09,0.04-0.13c0.03-0.04,0.08-0.07,0.15-0.09c0.07-0.02,0.17-0.04,0.29-0.06   c0.12-0.01,0.28-0.02,0.46-0.02c0.18,0,0.33,0.01,0.45,0.02c0.12,0.01,0.21,0.03,0.29,0.06c0.07,0.02,0.12,0.06,0.15,0.09   c0.03,0.04,0.04,0.08,0.04,0.13V64.4z"/>
	<path class="st1" d="M311.98,67.18c0.06,0.17,0.09,0.31,0.11,0.41c0.01,0.1-0.01,0.18-0.06,0.23c-0.05,0.05-0.15,0.08-0.28,0.09   c-0.14,0.01-0.32,0.02-0.56,0.02c-0.25,0-0.44,0-0.58-0.01c-0.14-0.01-0.24-0.02-0.31-0.04c-0.07-0.02-0.12-0.05-0.15-0.09   c-0.03-0.04-0.05-0.09-0.07-0.15l-0.63-1.88h-3.52l-0.59,1.83c-0.02,0.07-0.04,0.13-0.08,0.17c-0.03,0.04-0.08,0.08-0.15,0.11   c-0.07,0.03-0.17,0.05-0.3,0.06c-0.13,0.01-0.3,0.01-0.5,0.01c-0.22,0-0.4-0.01-0.52-0.02c-0.13-0.01-0.21-0.05-0.26-0.11   c-0.05-0.06-0.06-0.13-0.05-0.23c0.02-0.1,0.05-0.24,0.11-0.4l2.89-8.31c0.03-0.08,0.06-0.15,0.1-0.2c0.04-0.05,0.1-0.09,0.18-0.12   c0.08-0.03,0.2-0.04,0.35-0.05c0.15-0.01,0.35-0.01,0.59-0.01c0.29,0,0.51,0,0.68,0.01c0.17,0.01,0.3,0.02,0.39,0.05   c0.09,0.03,0.16,0.07,0.2,0.12c0.04,0.05,0.08,0.13,0.1,0.22L311.98,67.18z M307.68,60.31L307.68,60.31l-1.33,3.98h2.66   L307.68,60.31z"/>
	<path class="st1" d="M319.85,59.31c0,0.14-0.01,0.26-0.02,0.36c-0.01,0.1-0.03,0.18-0.06,0.24c-0.02,0.06-0.05,0.11-0.09,0.13   c-0.04,0.03-0.08,0.04-0.12,0.04h-2.35v7.55c0,0.05-0.02,0.09-0.05,0.13c-0.03,0.04-0.08,0.07-0.16,0.09   c-0.07,0.02-0.17,0.04-0.29,0.06c-0.12,0.01-0.28,0.02-0.46,0.02c-0.18,0-0.34-0.01-0.46-0.02c-0.12-0.01-0.22-0.03-0.29-0.06   c-0.07-0.02-0.12-0.06-0.16-0.09c-0.03-0.04-0.05-0.08-0.05-0.13v-7.55h-2.35c-0.05,0-0.09-0.01-0.12-0.04   c-0.03-0.03-0.06-0.07-0.09-0.13c-0.02-0.06-0.04-0.14-0.06-0.24c-0.01-0.1-0.02-0.22-0.02-0.36c0-0.14,0.01-0.27,0.02-0.37   c0.01-0.1,0.03-0.18,0.06-0.24c0.02-0.06,0.05-0.1,0.09-0.13c0.03-0.03,0.07-0.04,0.12-0.04h6.6c0.04,0,0.08,0.01,0.12,0.04   c0.04,0.03,0.07,0.07,0.09,0.13c0.02,0.06,0.04,0.14,0.06,0.24C319.84,59.04,319.85,59.16,319.85,59.31z"/>
	<path class="st1" d="M324.35,67.63c0,0.05-0.02,0.09-0.05,0.13c-0.03,0.04-0.08,0.07-0.16,0.09c-0.07,0.02-0.17,0.04-0.29,0.06   c-0.12,0.01-0.27,0.02-0.46,0.02c-0.18,0-0.34-0.01-0.46-0.02c-0.12-0.01-0.22-0.03-0.29-0.06c-0.07-0.02-0.12-0.06-0.15-0.09   c-0.03-0.04-0.05-0.08-0.05-0.13v-8.85c0-0.05,0.02-0.09,0.05-0.13c0.03-0.04,0.08-0.07,0.16-0.09c0.07-0.02,0.17-0.04,0.29-0.06   c0.12-0.01,0.27-0.02,0.46-0.02c0.19,0,0.34,0.01,0.46,0.02c0.12,0.01,0.22,0.03,0.29,0.06c0.07,0.02,0.12,0.06,0.16,0.09   c0.03,0.04,0.05,0.08,0.05,0.13V67.63z"/>
	<path class="st1" d="M336.3,63.1c0,0.78-0.1,1.47-0.29,2.09c-0.19,0.61-0.48,1.13-0.86,1.56c-0.38,0.43-0.85,0.75-1.42,0.98   c-0.56,0.23-1.21,0.34-1.95,0.34c-0.73,0-1.37-0.1-1.91-0.29c-0.54-0.19-1-0.48-1.36-0.87c-0.36-0.39-0.63-0.89-0.81-1.49   c-0.18-0.6-0.27-1.32-0.27-2.14c0-0.76,0.1-1.44,0.29-2.05c0.19-0.61,0.48-1.12,0.86-1.55c0.38-0.42,0.85-0.75,1.42-0.98   c0.56-0.23,1.22-0.34,1.96-0.34c0.71,0,1.34,0.09,1.88,0.28c0.54,0.19,1,0.48,1.36,0.87c0.36,0.39,0.64,0.88,0.83,1.48   C336.21,61.59,336.3,62.29,336.3,63.1z M334.3,63.2c0-0.49-0.04-0.94-0.12-1.34c-0.08-0.4-0.21-0.75-0.39-1.03   c-0.19-0.29-0.43-0.51-0.74-0.67c-0.31-0.16-0.7-0.24-1.16-0.24c-0.47,0-0.86,0.09-1.17,0.26c-0.31,0.18-0.57,0.41-0.76,0.71   c-0.19,0.29-0.33,0.64-0.41,1.03c-0.08,0.39-0.12,0.81-0.12,1.25c0,0.51,0.04,0.97,0.12,1.38c0.08,0.41,0.21,0.76,0.39,1.05   c0.18,0.29,0.43,0.51,0.74,0.66c0.31,0.15,0.7,0.23,1.17,0.23c0.47,0,0.86-0.09,1.17-0.26c0.31-0.17,0.57-0.41,0.76-0.71   c0.19-0.3,0.33-0.65,0.41-1.05C334.26,64.08,334.3,63.65,334.3,63.2z"/>
	<path class="st1" d="M347.11,67.23c0,0.11-0.02,0.21-0.06,0.3c-0.04,0.09-0.09,0.16-0.16,0.22c-0.06,0.06-0.14,0.1-0.23,0.13   c-0.09,0.03-0.18,0.04-0.27,0.04h-0.81c-0.17,0-0.31-0.02-0.44-0.05c-0.12-0.03-0.24-0.1-0.34-0.18c-0.1-0.09-0.2-0.21-0.3-0.36   c-0.1-0.15-0.21-0.35-0.33-0.59l-2.33-4.38c-0.14-0.26-0.27-0.54-0.41-0.84c-0.14-0.3-0.27-0.59-0.38-0.88h-0.01   c0.02,0.35,0.03,0.69,0.04,1.04c0.01,0.35,0.01,0.7,0.01,1.07v4.9c0,0.05-0.01,0.09-0.04,0.13c-0.03,0.04-0.07,0.07-0.14,0.1   c-0.07,0.03-0.15,0.05-0.26,0.06c-0.11,0.01-0.25,0.02-0.43,0.02c-0.17,0-0.31-0.01-0.42-0.02c-0.11-0.01-0.2-0.03-0.26-0.06   c-0.06-0.03-0.11-0.06-0.13-0.1c-0.02-0.04-0.04-0.08-0.04-0.13v-8.42c0-0.23,0.07-0.4,0.2-0.51c0.13-0.11,0.3-0.17,0.49-0.17h1.02   c0.18,0,0.34,0.02,0.46,0.05c0.13,0.03,0.24,0.08,0.34,0.16c0.1,0.07,0.19,0.17,0.28,0.3c0.09,0.13,0.18,0.29,0.27,0.47l1.82,3.42   c0.11,0.21,0.21,0.41,0.31,0.61c0.1,0.2,0.2,0.4,0.3,0.6c0.1,0.2,0.19,0.4,0.28,0.59c0.09,0.19,0.18,0.39,0.27,0.58h0.01   c-0.01-0.34-0.02-0.69-0.03-1.06c-0.01-0.37-0.01-0.72-0.01-1.05v-4.4c0-0.05,0.01-0.09,0.04-0.13c0.03-0.04,0.08-0.07,0.15-0.1   c0.07-0.03,0.16-0.05,0.27-0.06c0.11-0.01,0.25-0.02,0.43-0.02c0.16,0,0.3,0.01,0.41,0.02c0.11,0.01,0.2,0.03,0.26,0.06   c0.06,0.03,0.1,0.06,0.13,0.1c0.02,0.04,0.04,0.08,0.04,0.13V67.23z"/>
	<path class="st1" d="M264.29,84.85c0,0.33-0.05,0.63-0.14,0.9c-0.09,0.27-0.22,0.51-0.38,0.72c-0.16,0.21-0.35,0.39-0.58,0.54   c-0.22,0.15-0.47,0.27-0.74,0.37c-0.27,0.1-0.56,0.17-0.87,0.21c-0.31,0.05-0.65,0.07-1.02,0.07h-2.49c-0.16,0-0.29-0.05-0.4-0.14   c-0.11-0.09-0.16-0.25-0.16-0.46V78.9c0-0.21,0.05-0.37,0.16-0.46c0.11-0.09,0.24-0.14,0.4-0.14h2.35c0.57,0,1.06,0.05,1.46,0.14   c0.4,0.1,0.73,0.24,1.01,0.44c0.27,0.2,0.48,0.44,0.63,0.74c0.14,0.3,0.22,0.65,0.22,1.06c0,0.23-0.03,0.44-0.09,0.64   c-0.06,0.2-0.14,0.38-0.25,0.55c-0.11,0.16-0.25,0.31-0.41,0.43c-0.16,0.13-0.35,0.23-0.55,0.3c0.26,0.05,0.51,0.13,0.73,0.25   c0.22,0.12,0.42,0.28,0.59,0.47c0.17,0.19,0.3,0.41,0.39,0.67C264.25,84.25,264.29,84.53,264.29,84.85z M261.83,80.91   c0-0.19-0.03-0.36-0.09-0.51c-0.06-0.15-0.14-0.27-0.26-0.37c-0.12-0.1-0.26-0.18-0.44-0.23c-0.18-0.05-0.41-0.08-0.71-0.08h-0.96   v2.43h1.06c0.28,0,0.5-0.03,0.66-0.1c0.16-0.07,0.3-0.15,0.41-0.27c0.11-0.11,0.19-0.25,0.24-0.4   C261.81,81.24,261.83,81.08,261.83,80.91z M262.32,84.92c0-0.22-0.04-0.41-0.11-0.58c-0.07-0.17-0.18-0.32-0.32-0.43   c-0.14-0.11-0.32-0.2-0.54-0.27c-0.22-0.06-0.5-0.09-0.85-0.09h-1.13v2.66h1.38c0.27,0,0.49-0.03,0.67-0.08   c0.18-0.05,0.34-0.14,0.47-0.25c0.13-0.11,0.24-0.24,0.31-0.4C262.28,85.31,262.32,85.13,262.32,84.92z"/>
	<path class="st1" d="M275.73,82.87c0,0.78-0.1,1.47-0.29,2.08c-0.19,0.61-0.48,1.13-0.86,1.56c-0.38,0.43-0.85,0.75-1.42,0.98   c-0.56,0.22-1.21,0.34-1.95,0.34c-0.73,0-1.36-0.1-1.91-0.29c-0.54-0.19-1-0.48-1.36-0.87c-0.36-0.39-0.63-0.89-0.81-1.49   c-0.18-0.6-0.27-1.32-0.27-2.14c0-0.76,0.1-1.44,0.29-2.05c0.19-0.61,0.48-1.12,0.86-1.55c0.38-0.42,0.85-0.75,1.41-0.98   c0.56-0.23,1.21-0.34,1.96-0.34c0.71,0,1.34,0.09,1.88,0.28c0.54,0.19,1,0.48,1.36,0.87c0.37,0.39,0.64,0.89,0.83,1.48   C275.64,81.35,275.73,82.06,275.73,82.87z M273.73,82.97c0-0.49-0.04-0.94-0.12-1.34c-0.08-0.4-0.21-0.75-0.39-1.04   c-0.19-0.29-0.43-0.51-0.74-0.67c-0.31-0.16-0.69-0.23-1.16-0.23c-0.47,0-0.86,0.09-1.17,0.26c-0.31,0.18-0.57,0.41-0.76,0.71   c-0.19,0.3-0.33,0.64-0.41,1.03c-0.08,0.39-0.12,0.81-0.12,1.25c0,0.51,0.04,0.97,0.12,1.38c0.08,0.41,0.21,0.76,0.39,1.05   c0.18,0.29,0.43,0.51,0.74,0.66s0.7,0.23,1.17,0.23c0.47,0,0.86-0.09,1.17-0.26c0.31-0.17,0.57-0.41,0.76-0.71   c0.19-0.3,0.33-0.65,0.41-1.05C273.69,83.84,273.73,83.42,273.73,82.97z"/>
	<path class="st1" d="M286.29,86.95c0.06,0.17,0.09,0.31,0.11,0.41c0.01,0.1,0,0.18-0.06,0.23c-0.05,0.05-0.15,0.08-0.28,0.09   c-0.14,0.01-0.32,0.02-0.56,0.02c-0.25,0-0.44,0-0.58-0.01c-0.14-0.01-0.24-0.02-0.31-0.04c-0.07-0.02-0.12-0.05-0.15-0.09   c-0.03-0.04-0.05-0.09-0.07-0.15l-0.63-1.88h-3.52l-0.59,1.83c-0.02,0.07-0.04,0.12-0.08,0.17c-0.03,0.05-0.08,0.08-0.15,0.11   c-0.07,0.03-0.17,0.04-0.3,0.06c-0.13,0.01-0.3,0.01-0.5,0.01c-0.22,0-0.4-0.01-0.52-0.02c-0.13-0.01-0.21-0.05-0.26-0.11   c-0.05-0.06-0.07-0.13-0.05-0.23c0.01-0.1,0.05-0.24,0.11-0.4l2.89-8.31c0.03-0.08,0.06-0.15,0.1-0.2c0.04-0.05,0.1-0.09,0.18-0.12   c0.08-0.03,0.2-0.04,0.35-0.05c0.15-0.01,0.35-0.01,0.59-0.01c0.28,0,0.51,0,0.68,0.01c0.17,0.01,0.3,0.02,0.39,0.05   c0.09,0.03,0.16,0.07,0.2,0.12c0.04,0.05,0.08,0.13,0.11,0.22L286.29,86.95z M281.99,80.08L281.99,80.08l-1.33,3.98h2.66   L281.99,80.08z"/>
	<path class="st1" d="M296.03,87.42c0,0.05-0.01,0.1-0.03,0.13c-0.02,0.04-0.07,0.07-0.14,0.09c-0.07,0.02-0.18,0.04-0.32,0.05   c-0.14,0.01-0.33,0.01-0.57,0.01c-0.2,0-0.36,0-0.48-0.01c-0.12-0.01-0.22-0.03-0.29-0.06c-0.07-0.03-0.12-0.06-0.15-0.1   c-0.03-0.04-0.05-0.09-0.07-0.15l-0.84-2.09c-0.1-0.24-0.2-0.45-0.3-0.63c-0.1-0.18-0.2-0.34-0.32-0.46   c-0.12-0.12-0.25-0.22-0.41-0.28c-0.15-0.06-0.33-0.09-0.54-0.09h-0.59v3.57c0,0.05-0.02,0.09-0.05,0.13   c-0.03,0.04-0.08,0.07-0.16,0.09c-0.07,0.02-0.17,0.04-0.29,0.06c-0.12,0.01-0.28,0.02-0.46,0.02c-0.18,0-0.34-0.01-0.46-0.02   c-0.12-0.01-0.22-0.03-0.29-0.06c-0.07-0.02-0.12-0.06-0.15-0.09c-0.03-0.04-0.04-0.08-0.04-0.13V78.9c0-0.21,0.05-0.37,0.16-0.46   c0.11-0.09,0.24-0.14,0.4-0.14h2.43c0.25,0,0.45,0.01,0.61,0.02c0.16,0.01,0.3,0.02,0.43,0.04c0.38,0.05,0.72,0.14,1.02,0.28   c0.3,0.13,0.56,0.3,0.77,0.51c0.21,0.21,0.37,0.46,0.48,0.74c0.11,0.29,0.17,0.62,0.17,0.99c0,0.31-0.04,0.6-0.12,0.86   c-0.08,0.26-0.2,0.49-0.35,0.69c-0.15,0.2-0.34,0.38-0.57,0.53c-0.23,0.15-0.49,0.27-0.77,0.36c0.14,0.07,0.27,0.15,0.39,0.25   c0.12,0.1,0.24,0.21,0.35,0.35c0.11,0.14,0.21,0.3,0.31,0.47c0.1,0.18,0.19,0.38,0.28,0.6l0.79,1.85c0.07,0.18,0.12,0.32,0.14,0.4   C296.02,87.3,296.03,87.37,296.03,87.42z M293.57,81.06c0-0.31-0.07-0.57-0.21-0.78c-0.14-0.21-0.37-0.36-0.69-0.45   c-0.1-0.02-0.21-0.04-0.33-0.06c-0.12-0.01-0.29-0.02-0.51-0.02h-0.85v2.66h0.97c0.27,0,0.51-0.03,0.71-0.1   c0.2-0.06,0.37-0.16,0.51-0.27c0.14-0.12,0.24-0.26,0.3-0.42C293.54,81.45,293.57,81.26,293.57,81.06z"/>
	<path class="st1" d="M306.69,82.84c0,0.86-0.11,1.59-0.34,2.2c-0.22,0.61-0.55,1.11-0.97,1.49c-0.42,0.39-0.93,0.67-1.53,0.85   c-0.6,0.18-1.32,0.27-2.15,0.27h-2.24c-0.16,0-0.29-0.05-0.4-0.14c-0.11-0.09-0.16-0.25-0.16-0.46V78.9c0-0.21,0.05-0.37,0.16-0.46   c0.11-0.09,0.24-0.14,0.4-0.14h2.4c0.84,0,1.54,0.1,2.13,0.29c0.58,0.2,1.07,0.49,1.47,0.87c0.4,0.38,0.7,0.86,0.91,1.42   C306.59,81.44,306.69,82.1,306.69,82.84z M304.72,82.91c0-0.44-0.05-0.86-0.16-1.24c-0.1-0.38-0.27-0.71-0.5-0.99   c-0.23-0.28-0.52-0.5-0.88-0.66c-0.36-0.16-0.83-0.23-1.42-0.23h-0.96v6.37h0.99c0.52,0,0.96-0.07,1.32-0.2   c0.36-0.14,0.65-0.34,0.89-0.61c0.24-0.27,0.42-0.61,0.54-1.02C304.66,83.92,304.72,83.45,304.72,82.91z"/>
</g>
</svg>