<svg xmlns="http://www.w3.org/2000/svg" width="366" height="244" xmlns:xlink="http://www.w3.org/1999/xlink" viewBox="0 0 366 244">
  <defs>
    <symbol id="a" viewBox="0 0 366 244">
      <g>
        <rect width="366" height="244" fill="none"/>
        <g>
          <path d="M237,0h-108v162h108V0Z" fill="#154273"/>
          <path d="M184.88,113.65h-1.89v-5.24h1.89v5.24ZM193.4,90.52h-1.89v-5.24h1.89v5.24ZM158.43,81.48c-.15,0-1.13,0-1.13.2s.46.11,1.13.22c1.52.26,2.1,1.02,3.17,1.02.95,0,1.95-.65,1.56-2.04-.07-.24-.2-.17-.24-.02-.15.63-.91.98-1.71.98-1,0-1.19-.35-2.78-.35ZM148.04,86.72c.17.24,1.95,2.54-.78,3.43-.13.04-.15.15.02.24,2.02.85,2.99-.72,2.99-.72,1.02,2.35-.54,3.63-.54,3.63.22.41,1.19,1.13,2.65,1.46.56-.3,1.35-.87,1.67-1.74,0,0,.39,1.02.04,2,4.12.37,5.58-2.93,8.77-2.33.09.02.13-.04.13-.13,0-2.04-1.24-5.76-5.19-6.52-3.93-.76-2.86-2.37-2.86-2.37,1.65-.07,2.6.65,2.6.65.3-.5-.13-1.02-.13-1.02.15-.2.24-.87.24-.87-1.87,0-2.34-.41-2.34-.41-.28-1.11.48-2.67,3.25-1,.69-.61.63-1.56.63-1.56.22-.11.35-.43.35-.57,0-.46-2.21-1.7-2.78-1.85-.13-.67-1-1.63-3.6-1.28-1.24.15-2.13-.17-1.71-.89.07-.13-.15-.15-.26-.02-.28.28-.67,1.09.39,1.63,1.19.61,1.26,1.8,1.28,1.98.02.26-.28.28-.35.02-.54-2.02-3.32-2.46-4.95-1.39.09,1.09,1.26,1.8,1.89,1.8.37,0,.87-.37.87-.87,0-.24.13-.22.2-.02.26.72-.8,2.22-2.36,1.3-1.61,1.61-.95,3.61-.8,4.33.28,1.3-.35,2.59-1.54,2-.07-.02-.13-.04-.13.09.02.78,1.08,1.72,2.36,1ZM156.89,78.61c-.76.85-1.97.65-2.28-.74,1.56-.09,2.21.07,2.28.74ZM204.77,81.83c-.8,0-1.56-.35-1.71-.98-.04-.15-.17-.22-.24.02-.39,1.39.61,2.04,1.56,2.04,1.06,0,1.65-.76,3.17-1.02.67-.11,1.13,0,1.13-.22,0-.2-.98-.2-1.13-.2-1.56,0-1.78.35-2.78.35ZM220.31,85.68c0-.13-.07-.11-.13-.09-1.19.59-1.82-.67-1.54-2,.15-.74.8-2.72-.8-4.33-1.58.91-2.65-.59-2.36-1.3.06-.2.2-.22.2.02,0,.5.5.87.87.87.63,0,1.8-.72,1.89-1.8-1.63-1.07-4.4-.63-4.95,1.39-.07.26-.37.24-.35-.02,0-.17.09-1.37,1.28-1.98,1.08-.54.69-1.35.39-1.63-.11-.11-.35-.09-.26.02.41.72-.48,1.04-1.69.89-2.6-.35-3.45.63-3.6,1.28-.56.15-2.78,1.39-2.78,1.85,0,.13.13.48.35.57,0,0-.04.93.63,1.56,2.76-1.67,3.54-.11,3.25,1,0,0-.5.39-2.36.41,0,0,.09.67.24.87,0,0-.43.54-.13,1.02,0,0,.95-.72,2.6-.65,0,0,1.06,1.61-2.86,2.37-3.93.76-5.19,4.48-5.19,6.52,0,.11.04.15.13.13,3.19-.59,4.64,2.72,8.77,2.33-.37-.98.04-2,.04-2,.33.87,1.11,1.46,1.67,1.74,1.48-.33,2.43-1.02,2.65-1.46,0,0-1.56-1.28-.54-3.63,0,0,.98,1.56,2.99.72.17-.09.13-.2.02-.24-2.73-.89-.95-3.19-.78-3.43,1.28.76,2.36-.17,2.36-1ZM211.37,77.87c-.3,1.39-1.52,1.59-2.28.74.07-.67.74-.83,2.28-.74ZM182.27,54.64c0,.35.15.65.26.83.24.35.2.54.09.65-.11.11-.3.15-.65-.09-.17-.13-.48-.26-.82-.26-.59,0-.89.39-.89.72s.3.72.89.72c.35,0,.65-.15.82-.26.35-.24.54-.2.65-.09.11.11-.04,1.3-.2,2.26-.98.22-1.45,1-1.45,1.46,0,1.2,1.26,1.87,2.02,2.28.74-.39,2.02-1.09,2.02-2.28,0-.46-.48-1.26-1.45-1.46-.13-.93-.3-2.15-.2-2.26.11-.11.3-.15.65.09.17.13.48.26.82.26.59,0,.89-.39.89-.72s-.3-.72-.89-.72c-.35,0-.65.15-.82.26-.35.24-.54.2-.65.09-.11-.11-.15-.3.09-.65.13-.17.26-.48.26-.83,0-.59-.39-.89-.72-.89s-.72.3-.72.89ZM182.99,63.46c-.8,0-1.45.65-1.45,1.46s.65,1.46,1.45,1.46,1.45-.65,1.45-1.46-.65-1.46-1.45-1.46ZM182.99,77.39c5.79,0,9.05,1.11,9.05,1.11.02-2.93.02-4.56,1.69-4.33-.91-2.46,3.04-3.43,3.04-6.63,0-2.11-1.5-2.35-1.93-2.35-1.3,0-1.11.85-2.21.85-.13,0-.28-.04-.28.07,0,.37.3,1,.82,1,.69,0,.69-.7,1.22-.7.22,0,.54.17.54.89,0,1.37-.89,2.87-1.95,4.04-.24-.33-.56-.54-.98-.54-.63,0-1.17.65-1.17,1.46,0,.3.04.52.15.76-.35.2-.67.3-.89.3-.48,0-1.19-.2-1.19-1.24,0-2.33,3.1-4.37,3.1-7.32,0-1.41-.93-2.8-2.91-2.8-2.1,0-1.71,1.91-3.54,1.91-.09,0-.15.02-.15.11,0,.13.33,1.2,1.26,1.2,1,0,1.28-1.74,2.19-1.74.33,0,.82.2.82,1.37,0,.91-.46,2.41-1.11,3.83-.24-.24-.56-.41-.91-.41-.78,0-1.35.76-1.35,1.65,0,.57.22,1.13.61,1.48-.46.59-.93,1.06-1.56,1.06-1.26,0-1.8-.72-1.8-1.5,0-.85,1.54-1.15,1.54-2.46,0-.89-.59-1.39-1.13-1.39-.61,0-.91.39-.98.39s-.37-.39-.98-.39c-.56,0-1.13.5-1.13,1.39,0,1.3,1.54,1.63,1.54,2.46,0,.78-.56,1.5-1.8,1.5-.63,0-1.11-.48-1.56-1.06.39-.37.61-.91.61-1.48,0-.91-.56-1.65-1.35-1.65-.37,0-.67.17-.91.41-.65-1.43-1.11-2.91-1.11-3.83,0-1.17.5-1.37.82-1.37.89,0,1.17,1.74,2.19,1.74.93,0,1.26-1.07,1.26-1.2,0-.07-.07-.11-.15-.11-1.82,0-1.43-1.91-3.54-1.91-1.95,0-2.91,1.39-2.91,2.8,0,2.96,3.1,5,3.1,7.32,0,1.04-.72,1.24-1.19,1.24-.24,0-.54-.11-.89-.3.11-.26.15-.46.15-.76,0-.8-.54-1.46-1.17-1.46-.39,0-.72.22-.95.54-1.06-1.17-1.95-2.67-1.95-4.04,0-.7.33-.89.54-.89.5,0,.52.7,1.21.7.52,0,.82-.63.82-1,0-.11-.15-.07-.28-.07-1.11,0-.91-.85-2.21-.85-.43,0-1.93.24-1.93,2.35,0,3.22,3.95,4.17,3.04,6.63,1.67-.24,1.65,1.39,1.69,4.33-.02,0,3.23-1.11,9.03-1.11ZM172.38,81.72c-1.58.35-2.71.67-3.21.83.02-.7.28-1.35.91-1.48.09-.02.11-.13.02-.17-1.41-.93-2.15.85-2.17.91-.5-.04-1.26.11-1.26.78,0,2.02-4.6,3.13-5.66,3.3,1.89.72,2.67,3.11,2.67,3.11,1.37-1.37,2.95-2.56,3.32-2.56s.5.46.52.72c0,.09.09.11.15.04.72-1.06.37-1.3.3-1.63-.04-.24.02-1.17,1.06-1.07v13.45l-.54.11c-.24.04-2.21-1.63-4.45-3.19-2.26-1.56-3.45-.63-6.01.76-3.36,1.83-6.75.17-6.75.17-2.89,2.06-3.88,8.06-3.88,8.06-.59.24-1.54.5-2.43.5-2.21,0-2.6-1.35-2.6-2.13,0-3.41,4.27-4.87,4.27-8.24,0-.83-.37-4.13-4.47-4.13h-3.67c-1.54,0-1.91-1.11-2.13-1.52-.09-.17-.24-.07-.17.07.11.28-.17.72-.17,1.56,0,1.37.8,2.2,2.3,2.2.67,0,1.32-.2,1.52-.33.13-.09.22.04.15.13-.65.76-.69,2.2-.43,2.52.07.09.15.07.15,0,.37-1.43,1.71-2.8,3.54-2.8,2.23,0,2.21,1.89,2.21,2.35,0,2.74-4.79,4.74-4.79,8.52s4.04,4.63,6.36,4.04c-.13,3.82-4.51,5.13-4.64,2.39,0-.13-.11-.15-.17.02-.54,1.35-.33,2.54,1.37,2.91.11.02.07.09-.04.17-1.69,1.06-.78,5.28-.69,6.52.13,1.78-1.65,1.57-1.8,1.52-.07-.02-.15,0-.02.15,1.26,1.54,2.82.13,2.82.13,1.17.37.46,1.37-.35,1.89-.13.09-.11.17.02.17.17.02,2,.17,2.32-1.28.8.96,2,.61,2.23.48.35-.17,2.06-.8,2.21,1.11,0,.13.09.04.15-.02,1.28-1.63-.09-2.63-.87-2.74.07-.09,1.08-.96,2.02.24.07.09.13.11.13-.07.11-2.06-1.56-2.24-2.65-1.35-.04-.22-.41-1.37,1.22-1.33.04,0,.11-.07.04-.13-1.26-1.35-2.3-.13-2.56.17-.56.67-1.97.39-2.1.39.43-7.15,6.73-4.61,7.59-8.08.04-.17.13-.11.13-.04.24.85,2.36.96,2.76-.7.02-.11,0-.17-.07-.11-1.82,1.83-5.92-3.87-.33-8.5,4.77-3.93,9.05-1.74,10.67-.46.09.57-.26.76-.48.83-.09.02-.11.09.02.15.46.17,1.08.11,1.39-.31,1.02.72.15,1.63-.26,1.87-.11.07-.07.13.02.15.93.17,1.71-.78,1.76-1.35l.15.09v4.07c0,5.78,6.66,6.58,13.97,11.48,7.31-4.91,13.95-5.69,13.95-11.48v-4.07l.15-.09c.04.54.8,1.52,1.76,1.35.09-.02.13-.09.02-.15-.41-.26-1.3-1.15-.26-1.87.3.43.93.48,1.39.31.13-.04.11-.13.02-.15-.22-.07-.56-.26-.48-.83,1.63-1.3,5.9-3.5,10.67.46,5.6,4.63,1.5,10.3-.33,8.5-.09-.09-.09,0-.07.11.39,1.67,2.52,1.54,2.76.7.02-.07.11-.13.13.04.87,3.48,7.14.93,7.59,8.08-.13.02-1.54.28-2.1-.39-.24-.28-1.28-1.52-2.56-.17-.09.09,0,.13.04.13,1.63-.04,1.28,1.11,1.22,1.33-1.08-.89-2.76-.72-2.65,1.35,0,.15.07.15.13.07.93-1.19,1.95-.33,2.02-.24-.76.11-2.15,1.11-.87,2.74.07.07.13.15.15.02.17-1.91,1.87-1.3,2.21-1.11.24.13,1.43.48,2.23-.48.33,1.46,2.15,1.3,2.32,1.28.13,0,.13-.09.02-.17-.78-.52-1.52-1.52-.35-1.89,0,0,1.56,1.41,2.82-.13.11-.13.04-.17-.02-.15-.15.04-1.93.26-1.8-1.52.09-1.24,1-5.46-.69-6.52-.11-.07-.15-.13-.04-.17,1.69-.37,1.91-1.57,1.37-2.91-.07-.17-.17-.13-.17-.02-.13,2.74-4.49,1.43-4.64-2.39,2.34.61,6.36-.22,6.36-4.04s-4.79-5.78-4.79-8.52c0-.46-.02-2.35,2.21-2.35,1.82,0,3.17,1.37,3.54,2.8.02.07.09.09.15,0,.26-.35.22-1.76-.43-2.52-.07-.07,0-.22.15-.13.2.13.85.33,1.52.33,1.5,0,2.3-.83,2.3-2.2,0-.85-.3-1.28-.17-1.56.07-.13-.11-.22-.17-.07-.22.43-.61,1.52-2.13,1.52h-3.67c-4.1,0-4.47,3.33-4.47,4.13,0,3.37,4.27,4.83,4.27,8.24,0,.81-.41,2.13-2.6,2.13-.91,0-1.87-.26-2.43-.5,0,0-.98-5.98-3.88-8.06,0,0-3.38,1.65-6.75-.17-2.56-1.39-3.78-2.33-6.03-.76-2.26,1.56-4.21,3.24-4.45,3.19l-.54-.11v-13.45c1.04-.11,1.11.83,1.06,1.07-.07.3-.39.57.3,1.63.07.09.13.04.15-.04.02-.26.17-.72.52-.72s1.95,1.2,3.32,2.56c0,0,.78-2.37,2.67-3.11-1.06-.17-5.66-1.28-5.66-3.3,0-.67-.76-.83-1.26-.78-.02-.07-.78-1.85-2.17-.91-.07.04-.07.15.02.17.63.15.89.78.91,1.48-1.35-.41-7.05-2.02-13.82-2.02-3.3,0-6.31.39-8.72.83v4.65h-1.89v-4.28ZM159.88,129.49c-.5-.2-.82-.52-.82-1.2v-2.89c-.82-.28-3.08-1.15-7.62-1.15-3.75,0-4.92.85-4.99,1.15l-1,5.5s1.52-1.39,6.96-1.04c6.55.41,13.34,4.3,13.34.15v-2.43c-5.12.02-5.88,1.67-5.88,1.91ZM200.22,127.6v2.43c0,4.13,6.79.26,13.34-.15,5.45-.35,6.96,1.04,6.96,1.04l-1-5.52c-.04-.31-1.24-1.15-4.99-1.15-4.51,0-6.77.87-7.62,1.15v2.89c0,.65-.33.98-.82,1.2.02-.24-.74-1.89-5.88-1.89ZM182.99,125.1c10.57,0,21.28.54,22.67,2.15.11.13.15,0,.15-.11v-5.61c0-1.63-11.07-2.59-22.85-2.59s-22.85.96-22.85,2.59v5.61c0,.09.04.22.15.11,1.45-1.59,12.17-2.15,22.72-2.15ZM173.57,98.67l-1.06-.28-.09.13-1.24-.54h1.11c.11,0,.11-.07.07-.11-.5-.5-.95-.93-.95-.93,0,0,.5.2,1.22.46.09.02.11-.02.07-.09-.35-.5-.82-1.2-.82-1.2,0,0,1,.67,1.19.8.07.04.11,0,.09-.07-.26-.65-.56-1.41-.56-1.41l1.08,1.04s.11.02.09-.04c-.11-.5-.3-1.41-.3-1.41l.8,1.17c.04.07.11.04.11-.02,0-.24.02-1.28.02-1.28,0,0,.35.78.5,1.17.04.09.09.09.13-.02.04-.13.41-1,.41-1l.04,1.35-.17.04-.22,1.61c1.58-.37,3.58-3.11,5.1-3.11,1.82,0,2.47,2.13,5.81,1.04.85,1.26,1.15,2.35,1.48,3.85,1.3,1.22,3.1.8,3.1-.48,0-1.74-1.89-2.06-1.89-3.89,0-.8.56-1.98,2.1-1.98.82,0,2.02.35,2.71.35.82,0,1-.59,1.08-.85.07-.17.3-.13.28.02-.02.17.09.41.09.8,0,1.15-1.67,1.3-1.87,1.15-.09-.07-.15.02-.09.09.26.2.2.89-.11,1.33-.04.04-.09.04-.09,0-.17-.83-1.15-1.85-2-1.85-.3,0-.93.17-.93.91,0,1.02,2.06,1.98,2.06,4.11s-2.19,2.76-4.4,2.19c.07,2.11,3.21,3.35,3.28,1.85,0-.11.07-.04.09,0,.46.65.26,1.13-.35,1.39.54.24.65,1.35.8,2.02.24,1,1.28.43,1.35.41.07-.04.09,0,.04.06-.39,1.02-1.45.63-1.45.63-.54.39.11.74.61.89.07.02.07.06.02.11-.37.13-1.15.39-1.54-.28-.28.7-.87.67-1.08.67-.41,0-.67.41-.59.98,0,.04-.02.07-.07.04-.95-.63-.41-1.39-.02-1.59-.07-.04-.74-.33-1.02.46-.02.07-.07.07-.09,0-.41-1.13.5-1.46,1.15-1.17-.04-.15-.39-.72-1.26-.52-.04.02-.07,0-.04-.07.15-.35.56-.85,1.37-.35.41.26,1.11-.11,1.17-.15-1.41-2.8-4.12-.46-4.75-2.65-.02-.04-.07-.09-.11.04-.15.46-1.35.5-1.56-.41-.02-.07,0-.09.06-.04.17.17.54.33,1.04-.37.33-.48.37-1.11.37-1.52,0-1.69-1.69-4.56-4.34-4.56-1.67,0-3.47.65-4.82,1.63l1.24.28c-.11,1.26-1.32,2-2.43,1.67l.2-1.43c-.2.07-.67.24-.93.61-.02.02-.06.02-.06-.02-.22-.83.46-1.24.65-1.33t-.02-.02c-.61-.02-.93.41-1.04.57-.02.02-.04.02-.04,0,.07-.17-.04-.59.24-.89ZM177.28,108.41c-.48.59-.89.02-1.52.02-.59,0-.69.5-.69.69,0,.04-.02.04-.04.02-.67-.91.09-1.41.52-1.48-.07-.06-.72-.5-1.13.11-.02.04-.07.02-.07-.02-.02-1.13.87-1.22,1.48-.72.11-.43-.17-.72-.65-.74-.07,0-.07-.04-.04-.07.2-.22.39-.31.59-.31.63,0,.72.8,1.13.8.61,0,1.5-.82,1.56-.91-.02-.04-.61-1.65-.5-2.61,0-.04-.02-.04-.04-.02-.3.17-1.04.15-1.04-.76,0-.07.02-.09.07-.02.33.46.87-.07,1.13-.37.28-.33,1.84-2.59,3.91-2.59.46,0,1.04.26,1.52.59-.72.87,0,1.7.52,1.59.06-.02.06.04.02.07-2.73,1.02-3.95,1.43-3.95,3.74,0,1.2.41,1.87,1.11,1.7.04-.02.07,0,.02.04-.26.3-.54.41-.78.41-.56,0-.67-.3-.98-.3s-1.32.61-1.32,1.11c0,.2.13.46.48.67.02.02,0,.04,0,.04-.3,0-1.11.06-1.28-.7ZM184.46,86.13c-.85-.04-1.41.13-1.37.41.41.43.95.39,1.37-.41ZM181.32,88.24c.61-.15,1.26-.09,1.35-.07.09.02.09.17-.02.2-1.26.15-1.32.74-2.13.74-.52,0-1.11-.54-.89-1.33.02-.11.11-.11.13,0,.09.35.59.72,1.56.46ZM164.98,116.19c.82,1.06,1.63.06,2.73.06.54,0,1.19.17,1.3,1.26,0,.07.04.07.11,0,1.19-1.63-.17-2.54-.95-2.67.17-.15,1.32-.87,2.08.19.04.06.13.04.13-.04,0-2.07-1.54-2.22-2.67-1.33-.22-.8.39-1.33,1.17-1.33.09,0,.13-.07.09-.11-1.39-1.48-2.41.39-2.65.67-.54.74-2.52-.65-3.32-1.48,0,0,1.74-1.83,1.74-3.5,0-.11-.02-.24-.02-.3,0-.04.02-.07.06-.04.17.11.41.17.65.17.39,0,1.15-.13,1.15-1.54,0-.11-.04-.11-.09-.04-.22.31-.43.37-.61.37-1.41,0-4.34-4.69-7.81-4.69-.91,0-2.63.65-3.47,1.59.41.24.5.76.46,1.13-.07.59-.54.89-1.02,1.02-.09.02-.09.09,0,.13,1.76.67,4.92,1.87,5.66,2.5.85.74.69,2.13.2,4.07-.48,1.85-1.5,1.61-1.89,1.54-.07,0-.07.02-.04.07.46.57,1,.76,1.48.76.91,0,1.26-.57,1.71-.57.78,0,2.45,1.13,2.45,2,0,.48-.37.93-.87,1.24-.02.02-.02.07.02.07.37.07,1.91.19,2.21-1.2ZM203.23,117.39s.07-.04.02-.07c-.48-.33-.87-.76-.87-1.24,0-.87,1.65-2,2.45-2,.48,0,.8.57,1.71.57.48,0,1.02-.2,1.48-.76.04-.04.02-.09-.04-.07-.37.07-1.41.3-1.89-1.54-.5-1.93-.67-3.33.2-4.07.72-.63,3.91-1.82,5.66-2.5.09-.04.09-.11,0-.13-.48-.13-.95-.43-1.02-1.02-.04-.37.04-.87.46-1.13-.87-.93-2.58-1.59-3.49-1.59-3.47,0-6.4,4.69-7.81,4.69-.17,0-.41-.07-.61-.37-.04-.06-.09-.06-.09.04,0,1.41.76,1.54,1.15,1.54.22,0,.48-.07.65-.17.04-.02.07,0,.07.04,0,.07-.02.19-.02.3,0,1.67,1.74,3.5,1.74,3.5-.78.83-2.76,2.19-3.32,1.48-.24-.3-1.26-2.15-2.65-.67-.04.07-.02.11.09.11.78,0,1.39.52,1.17,1.33-1.13-.89-2.67-.74-2.67,1.33,0,.09.09.11.13.04.74-1.07,1.91-.35,2.06-.19-.78.11-2.13,1.04-.95,2.67.04.07.09.07.11,0,.13-1.06.78-1.26,1.3-1.26,1.08,0,1.89,1,2.73-.06.35,1.39,1.89,1.26,2.26,1.2ZM175.22,90.28c-.11.15-.48,0-.61-.07-.02-.02-.04,0-.02.02.09.2.43.78.95.78.24,0,.59-.13.67-.3,0,0,2.04.67,3.04.93-.39.52-.63,1.15-.69,1.83-.8-.5-4.06-2.24-4.06-2.24l-1,1.39c-.17.22-.98-.37-.8-.59l.76-1.07c-.26-.26-.87-.11-1.04-.04-.02,0-.04,0-.02-.04.11-.22.48-.85,1.43-.57,0-.59-.87-.39-1.11-.33-.02,0-.04,0-.02-.02.24-.26.95-.83,1.74-.35l.35-.48-.69-.74.43-.61.5.65,3.75-5.15c.09-.13.85-.35,1.11-.41.02.28.07,1.07-.02,1.2l-3.69,5.19.78.26-.43.61-.91-.43-.39.57ZM188.39,89.44c0,.48.28,1.17.91.96.02-.02.06,0,.04.02-.09.52-1.04,1-1.45.39-.39.8-.28,1.56.52,2,.04.02.04.09,0,.13-.5.35-1.26.28-1.61-.41-.67.5-.59,1.59-.17,1.96,0,0-1.87,1.11-3.56.33-1.13-.54-2.04-1.24-3.49-1.11.2-2.04,1.21-2.56,3.08-2.87,1.5-.24,1.67-.93,1.48-1.46-.5-.13-1.43.33-1.43.33-.17-.28.07-.57.07-.57-.09-.11-.13-.48-.13-.48,1.04,0,1.24-.24,1.24-.24.2-1.09-.91-1.2-1.76-.61-.39-.35-.33-.8-.33-.8-.11-.07-.2-.24-.2-.33,0-.26,1.24-.96,1.56-1.04.09-.37.52-.87,1.84-.74.15-.35-.11-1.63-.26-1.96-.04-.11.02-.15.13-.09.46.28.91,1.37,1.24,1.39,0,0,1.48-.78,1.54-.74.07.04.28,1.7.28,1.7.2.24,1.35,0,1.84.22.13.07.13.15,0,.17-.37.07-1.56.59-1.76.91.69,1.02.37,2.52.37,2.93Z" fill="#fff"/>
        </g>
      </g>
    </symbol>
  </defs>
  <rect width="366" height="244" fill="#01689b"/>
  <use width="366" height="244" xlink:href="#a"/>
</svg>